<?xml version="1.0" encoding="UTF-8"?>
<svg version="1.1" viewBox="0 0 1600 304" width="1280" height="1280" xmlns="http://www.w3.org/2000/svg">
<path transform="translate(1223)" d="m0 0c2.49-0.293 4.72-0.396 7.2-0.363 0.715-4.99e-4 1.43-9.97e-4 2.17-0.00151 1.52 0.00234 3.03 0.0121 4.55 0.0286 2.31 0.0235 4.61 0.0206 6.92 0.0139 1.48 0.00558 2.95 0.0127 4.43 0.0215 0.685-9.11e-4 1.37-0.00182 2.07-0.00276 8.12 0.118 12.7 2.64 18.5 8.01 3.28 3.45 5.74 7.24 8.18 11.3 0.99 1.48 0.99 1.48 2 3 2.29 0.492 2.29 0.492 4.94 0.477 0.977 0.0309 1.95 0.0619 2.96 0.0938 1.02 0.018 2.05 0.0361 3.1 0.0547 2.02 0.0509 4.04 0.105 6.06 0.164 0.898 0.0176 1.8 0.0351 2.72 0.0532 2.21 0.158 2.21 0.158 4.21 1.16 2.27 3.42 2.38 6.72 2.62 10.8 0.112 1.76 0.112 1.76 0.227 3.55 0.049 0.892 0.098 1.78 0.148 2.7l2.93 0.262c13.5 1.46 22.7 5.52 32.1 15.7 7.59 10.1 10.5 21.7 12.3 34 0.189 1.2 0.379 2.41 0.574 3.65 0.598 3.81 1.18 7.63 1.76 11.4 0.592 3.82 1.19 7.64 1.78 11.5 0.369 2.36 0.734 4.73 1.1 7.1 0.886 5.75 1.86 11.5 3.05 17.2 6.88 34 6.88 34 0.95 44.8-5.88 8.16-12.6 13.2-22.5 15.4-9.06 1.15-17.7-0.192-25.3-5.64-5.67-4.94-9.54-10.1-13.3-16.6-0.554-0.924-1.11-1.85-1.68-2.8-1.1-1.83-2.19-3.67-3.28-5.51-1.93-3.26-3.92-6.47-5.92-9.69-1.8-2.92-3.58-5.85-5.31-8.82-0.538-0.926-1.08-1.85-1.63-2.8-0.692-1.22-0.692-1.22-1.4-2.46-0.405-0.571-0.81-1.14-1.23-1.73h-2c-0.908 1.34-1.75 2.72-2.56 4.12-4.46 6.92-10.6 10.7-18.4 12.9-10.9 1.1-18.7-0.331-27.2-7.25-3.69-3.42-6.58-7.2-8.75-11.8v-2c-12.4-1.66-12.4-1.66-23.6 1.95-1.66 2.54-1.66 2.54-2.98 5.31-2.95 5.86-8.55 10.4-14.6 12.7-7.5 2.02-16.6 2.4-23.8-0.824-6.3-3.89-11.1-8.91-14.9-15.2-0.66-0.33-1.32-0.66-2-1-0.244 0.666-0.487 1.33-0.738 2.02-1.57 3.71-3.47 7.16-5.45 10.7-0.401 0.712-0.801 1.42-1.21 2.16-2.72 4.78-5.67 9.28-8.92 13.7-1.91 2.76-3.54 5.63-5.18 8.55-6.26 10.8-12.5 16.3-24.5 19.9-10.3 1.27-19.2-0.843-27.7-6.9-2.96-2.65-4.83-5.47-6.92-8.82-1.34-2.22-1.34-2.22-2.73-3.92-4.81-6.53-2.26-15.6-1.14-23.1 0.556-3.24 1.14-6.47 1.74-9.7 0.691-3.68 1.36-7.37 2.02-11.1 0.209-1.16 0.209-1.16 0.421-2.33 1.46-8.18 2.74-16.4 4.01-24.6 6.5-42 6.5-42 13.3-51.6 0.743-1.07 1.48-2.14 2.25-3.25 7.3-7.3 17.7-14.4 28.3-14.8 0.882 0.0116 1.76 0.0232 2.67 0.0352 0.892 0.00902 1.78 0.018 2.7 0.0273 0.675 0.0116 1.35 0.0232 2.05 0.0352-0.0522-1.21-0.0522-1.21-0.105-2.45-0.0271-1.07-0.0541-2.14-0.082-3.24-0.0522-1.58-0.0522-1.58-0.105-3.2 0.419-4.45 2.18-7 5.29-10.1 2.98-0.237 5.86-0.352 8.84-0.371 0.878-0.00903 1.76-0.0181 2.66-0.0274 1.86-0.0145 3.72-0.0234 5.58-0.0271 2.85-0.0119 5.69-0.0611 8.54-0.112 1.8-0.00946 3.61-0.0167 5.41-0.0215 0.853-0.0195 1.71-0.0391 2.59-0.0592 2.24 0.0171 4.21 0.0765 6.39 0.618 2.92 3.39 3.4 6.29 3.62 10.7 0.139 3.8 0.139 3.8 1.38 7.31 11.2 0.33 22.4 0.66 34 1v-7c0.33-0.99 0.66-1.98 1-3 0.804-0.186 1.61-0.371 2.44-0.562 2.73-1.14 2.73-1.14 3.16-3.47 0.277-1.74 0.549-3.49 0.816-5.23 1.34-6.24 5.25-12.1 9.59-16.7 1.65-1.02 3.32-2.03 5-3 0.66-0.99 1.32-1.98 2-3zm-3 14c-0.87 2.13-0.87 2.13-1 4h-2c-0.702 1.41-1.39 2.83-2.06 4.25-0.383 0.789-0.766 1.58-1.16 2.39-0.873 2.65-0.891 3.82 0.223 6.36 2.49 1.3 2.49 1.3 5 2h-2c0.99 2.97 1.98 5.94 3 9 5.11 0.0247 10.2 0.0428 15.3 0.0549 1.74 0.00504 3.48 0.0119 5.22 0.0205 2.49 0.0121 4.99 0.0178 7.48 0.0222 1.17 0.00774 1.17 0.00774 2.37 0.0156 1.87 1.96e-4 3.74-0.0513 5.6-0.113 1.75-1.75 1.17-4.37 1.25-6.75 0.324-4.19 0.516-5.91 2.94-9.44 3.05-1.96 5.22-2.56 8.81-2.81-2.58-7.57-6.96-11.6-13.9-15.4-11.6-4.73-26.2-2.52-35.1 6.38zm-129 55c-1.25 2.09-1.25 2.09-2 4h-2c-0.815 1.6-1.63 3.21-2.44 4.81-0.452 0.893-0.905 1.79-1.37 2.71-3.2 6.66-3.47 14.9-1.47 22 1.99 4.25 4.43 6.72 8.28 9.44 0.722 0.804 1.44 1.61 2.19 2.44 6.87 6.26 13.7 8.32 22.9 8.15 10.1-0.56 16.1-5.2 23-12.2 4.21-5.24 5.47-9.86 5.41-16.5-0.00967-1.12-0.00967-1.12-0.0195-2.26-0.295-9.02-3.07-16.4-9.17-23.1-12.8-11.5-30.6-10.7-43.3 0.5zm189 6.15c-5.02 7.66-6.11 14.8-5.33 23.8 1.21 5.2 4.06 8.5 8 12 0.601 0.568 1.2 1.14 1.82 1.72 6.79 6.27 13.1 9.67 22.3 10.6 9.33-0.752 17.3-4.76 23.9-11.3 5.46-6.61 8.36-12.8 7.81-21.5-0.537-4.71-1.7-8.28-3.81-12.5-0.495-1.48-0.495-1.48-1-3h-2l-0.781-1.78c-3.48-6.33-10-10.2-16.6-12.6-14.1-3.61-25.7 3.51-34.2 14.5zm-98.3-6.15c-0.33 2.31-0.66 4.62-1 7 2.76 1.38 5.05 1.1 8.12 1.06l3.32-0.0273c0.843-0.0116 1.69-0.0232 2.55-0.0352 0.0206-1.3 0.0412-2.6 0.0625-3.94 0.0116-0.731 0.0232-1.46 0.0352-2.21 0.108-1.86 0.108-1.86-1.1-2.85-1.46-0.0986-2.92-0.13-4.38-0.125-1.19-0.00387-1.19-0.00387-2.4-0.00781-2.4 0.0466-2.4 0.0466-5.23 1.13zm44 0c-0.381 2.33-0.713 4.66-1 7 1.11 1.34 1.11 1.34 3.94 1.1 1.19-0.0116 2.39-0.0232 3.62-0.0352 1.2-0.00902 2.4-0.018 3.63-0.0273 1.39-0.0174 1.39-0.0174 2.81-0.0352v-8c-4-2-8.88-1.37-13 0zm-21 22c-0.381 2.33-0.713 4.66-1 7 1.09 1.31 1.09 1.31 3.72 1.1 1.1-0.0116 2.2-0.0232 3.34-0.0352 1.1-0.00902 2.21-0.018 3.35-0.0273 0.855-0.0116 1.71-0.0232 2.59-0.0352 0.33-2.64 0.66-5.28 1-8-4.66-0.838-8.37-1.02-13 0zm-50.4 27.1c-4.11 4.83-6.27 10.6-7.27 16.8 0.839 4.2 2.35 5.39 5.62 8.12 0.639 0.592 1.28 1.18 1.94 1.79 5.47 5.02 9.3 7.7 17 7.45 6.46-0.778 11.7-4.58 16-9.25 3.25-5.1 2.55-11.5 1.65-17.2-0.465-2.09-0.465-2.09-1.65-4.76-0.99-0.33-1.98-0.66-3-1-0.268-0.598-0.536-1.2-0.812-1.81-1.81-3.34-3.83-4.45-7.19-6.19-8.88-2.17-15.6-0.0405-22.4 6.07zm79.9 1.81c-4.65 7.06-4.71 13-3.5 21.1h2c0.0825 0.619 0.165 1.24 0.25 1.88 0.536 2.24 0.536 2.24 2.44 3.12 0.763 0.33 1.53 0.66 2.31 1 0.99 0.681 1.98 1.36 3 2.06 5.1 3.29 9.97 3.8 16 2.51 5.63-1.78 9.28-5.08 13-9.57 2.67-5.34 1.47-13.4-0.125-18.9-1.94-4.98-5.04-7.66-9.83-10-9.72-4.03-18.9-1.53-25.5 6.84z" fill="#F9FAFC"/>
<path transform="translate(858 -.0625)" d="m0 0c0.754 0.00451 1.51 0.00902 2.29 0.0137 1.86 0.0118 3.73 0.0297 5.59 0.0488-1.75 1.16-3.52 2.29-5.34 3.33-7.76 4.42-12.5 9.21-15.7 17.7-0.563 3-0.859 5.96-1 9 0.99 0.33 1.98 0.66 3 1 0.949 2.07 0.949 2.07 1.69 4.56 0.251 0.826 0.503 1.65 0.762 2.5 0.273 0.957 0.273 0.957 0.551 1.93 0.962 0.136 1.92 0.272 2.91 0.411 3.63 0.514 7.27 1.04 10.9 1.56 1.56 0.224 3.12 0.446 4.68 0.666 9.63 1.36 19.1 2.97 28.5 5.36 1.7-21.3 1.7-21.3-7-40-3.17-2.53-6.36-4.27-10-6-0.99-0.99-0.99-0.99-2-2 14-1.36 14-1.36 18.5 1.72 1.82 2.34 3.19 4.63 4.52 7.28 0.403 0.681 0.807 1.36 1.22 2.06 4.88 8.67 5.05 17.8 4.9 27.5-0.00902 1.1-0.018 2.21-0.0273 3.35-0.0234 2.7-0.0561 5.39-0.0977 8.09 0.552 0.2 1.1 0.401 1.67 0.607 16.1 5.89 31.5 12 45.3 22.4 0.99 0.66 1.98 1.32 3 2v2c0.866 0.278 0.866 0.278 1.75 0.562 3.35 2.14 4.43 4.93 6.25 8.44h2c0.159 0.804 0.159 0.804 0.32 1.62 1.16 4.06 3.23 7.73 5.11 11.5 3.96 9.06 5.1 18.3 5.01 28.1-0.0103 1.63-0.0103 1.63-0.0208 3.3-0.179 9.05-1.5 16.9-4.42 25.5-0.351 1.1-0.701 2.2-1.06 3.33-4.92 14.1-14.4 31.9-28.1 39.3-1.92 0.773-1.92 0.773-3.81 1.38-0.967 0.329-0.967 0.329-1.95 0.664-7.61 2.25-14.7 2.31-21.9-1.3-7.23-4.53-11.6-11.2-16-18.4-7.61-12.6-19.9-18.2-33.7-22-24.6-5.91-51.4-4.35-73.7 8.63-8.24 5.16-12.7 13.2-17.7 21.4-4.2 6.72-9.39 11.1-17.2 12.9-8.82 1.04-17.3-0.796-24.7-5.81-9.27-7.82-15.3-18.2-21.3-28.6-0.386-0.662-0.772-1.32-1.17-2.01-2.18-3.89-3.23-7.08-3.83-11.6-0.649-1.34-1.32-2.68-2-4-5.97-20-3.79-40.5 6.08-58.8 7.63-12.5 17.4-20 29.9-27.2 1.03-0.589 2.05-1.18 3.11-1.79 24.9-13.3 57.6-21.6 85.9-21.2-0.0412-1.09-0.0825-2.19-0.125-3.31 0.125-3.69 0.125-3.69 2.12-6.69h4c-0.0619-1.26-0.124-2.52-0.188-3.81 0-5.83 0.663-13.4 4.73-17.9 0.48-0.431 0.959-0.861 1.45-1.3 0.309-0.66 0.619-1.32 0.938-2 3.3-6.21 8.94-6.13 15.2-6.06zm-121 86.3c-8.46 8.67-11.2 17.1-11.1 29 0.269 6.51 1.82 11.1 6.48 15.7 0.429 0.454 0.859 0.908 1.3 1.38 8.74 8.36 18.4 13.9 30.7 13.6 8.67-1.09 15.2-3.62 22-9 0.908-0.619 1.82-1.24 2.75-1.88 4.8-4.54 8.08-10.1 8.45-16.8 0.15-8.59-0.235-16.2-3.2-24.4h-2c-0.227-0.722-0.454-1.44-0.688-2.19-2.97-6.36-9.21-10.6-15.3-13.8-14.9-4.95-27.9-2.45-39.4 8.23zm75.4-5.23c-0.833 3.54-0.833 3.54 0 7 2.14 2.43 3.88 3.8 7.12 4.37 2.61 0.158 5.2 0.183 7.82 0.16 0.958 0.00383 1.92 0.00765 2.9 0.0116 2.02 0.00272 4.04-0.00463 6.06-0.0214 3.09-0.0214 6.17-1.89e-4 9.26 0.0254 1.97-0.00264 3.93-0.00777 5.9-0.0156 0.921 0.0081 1.84 0.0162 2.79 0.0245 4.24-0.0618 6.56-0.196 10.2-2.45 2.08-1.93 2.08-1.93 2.31-4.36-0.115-0.762-0.229-1.52-0.348-2.31-0.0915-0.764-0.183-1.53-0.277-2.32-1.1-2.96-1.98-3.6-4.79-5.12-3.28-0.475-6.53-0.468-9.84-0.469-0.959-0.00761-1.92-0.0152-2.91-0.0231-2.03-0.0108-4.05-0.0137-6.08-0.00916-3.1 9.72e-4 -6.19-0.0407-9.29-0.085-1.97-0.00521-3.94-0.0079-5.91-0.00781-0.924-0.0164-1.85-0.0328-2.8-0.0497-5.74 0.0616-8.63 0.685-12.2 5.64zm83.7 5.5c-0.741 0.429-1.48 0.859-2.24 1.3-1.82 1.06-3.63 2.13-5.44 3.2-0.25 2.42-0.25 2.42 0 5 2.78 2.29 2.78 2.29 5.76 1.84 3.73-0.972 6.69-2.47 10.1-4.34 1.14-0.629 2.28-1.26 3.46-1.91 2.56-1.34 2.56-1.34 3.73-2.59 0.25-2.46 0.25-2.46 0-5-1.79-2.16-1.79-2.16-4.11-2.41-4.3 0.604-7.51 2.71-11.2 4.91zm28.4 8.5c-1.02 0.501-2.04 1-3.08 1.52-3 1.48-5.99 2.98-8.98 4.48-1.52 0.756-3.05 1.51-4.57 2.27-2.6 1.29-5.18 2.59-7.77 3.9-2.51 1.27-5.03 2.49-7.58 3.67-0.952 0.452-0.952 0.452-1.92 0.913-1.72 0.815-3.45 1.62-5.17 2.42-4.06 2.49-6.83 5.53-8.99 9.84-0.199 1.97-0.313 3.96-0.375 5.94-0.049 1.06-0.098 2.12-0.148 3.21 0.225 3.03 0.225 3.03 2.84 4.59 1.33 0.625 1.33 0.625 2.68 1.26 0.574 0.397 1.15 0.794 1.74 1.2 0.519 0.345 1.04 0.691 1.57 1.05 0.512 0.356 1.02 0.712 1.55 1.08 6.16 1.94 12.3-0.953 17.7-3.7 1.48-0.724 2.97-1.45 4.45-2.17 0.795-0.393 1.59-0.785 2.41-1.19 2.79-1.37 5.6-2.7 8.41-4.03 2.01-0.953 4.03-1.91 6.04-2.86 0.938-0.443 1.88-0.885 2.84-1.34 14.7-6.04 14.7-6.04 25.3-17 0.928-4.5 0.351-8.02-1.19-12.3-2.65-3.93-5.31-6.19-9.81-7.69-6.95-0.867-11.8 1.91-17.9 5zm-222 38 1 3z" fill="#F9FAFC"/>
<path transform="translate(543,23)" d="m0 0c7 7.44 7 7.44 7 11 0.99 0.33 1.98 0.66 3 1 4.38 9.06 4.49 18.2 4 28h2v2c0.681-0.0954 1.36-0.191 2.06-0.289 14.3-1.63 26.8 0.781 39.9 6.29 0.758 0.308 1.52 0.616 2.3 0.934 7.6 3.42 17.4 10.1 21 17.8 0.371 1.11 0.371 1.11 0.75 2.25h2c0.392 1.11 0.784 2.23 1.19 3.38 1.24 3.33 2.69 6.46 4.31 9.62 7.5 14.7 9.57 33.3 4.81 49.3-0.721 1.92-1.49 3.81-2.31 5.69-0.362 0.874-0.724 1.75-1.1 2.65-2.93 6.46-6.98 12.2-11.9 17.4h-2c-0.33 0.99-0.66 1.98-1 3-13.1 13.1-31.4 19.3-49.6 19.5-14.2-0.152-26.3-4.33-38.4-11.5-0.467-0.486-0.934-0.972-1.41-1.47-6.84-6.74-16.5-5.47-25.4-5.46-1.86-0.0142-3.72-0.0296-5.58-0.0461-3.89-0.0268-7.78-0.0301-11.7-0.0183-4.95 0.0117-9.89-0.0492-14.8-0.13-3.84-0.0521-7.68-0.0575-11.5-0.0502-1.82-0.00335-3.64-0.0223-5.46-0.0583-11.8-0.208-19.4 1.36-28.8 8.8-12.5 9.82-31.2 10.6-46.3 9.44-19.4-2.47-35-13.9-46.8-28.8-8.17-11.4-13.4-22.8-13.4-36.9-0.0122-0.86-0.0245-1.72-0.0371-2.61-0.0423-18.7 8.49-36.7 21.5-50 17.8-17.5 39.9-19.9 63.8-19.9 1.64-6.75e-4 3.29-0.00165 4.93-0.0029 3.43-0.00147 6.86 6.45e-4 10.3 0.00534 4.37 0.0057 8.74 0.00241 13.1-0.00357 3.39-0.00363 6.78-0.00245 10.2 1.28e-4 1.61 6.62e-4 3.22-1.32e-4 4.83-0.00248 8.27-0.00941 16.4 0.109 24.6 1.14-0.0192-0.662-0.0383-1.32-0.0581-2-0.192-6.62-0.192-6.62 2.06-10h4c0.147-1.05 0.147-1.05 0.297-2.12 0.992-6.29 2.33-11.5 5.7-16.9 0.41-0.668 0.82-1.34 1.24-2.02 6.13-9.04 15.2-14.2 25.7-16.7 11.7-1.19 21.6 0.286 31.1 7.69zm-45.5 9.06c-5.09 5.98-9.15 12-9.5 19.9 2.67 2.34 2.67 2.34 6 3-0.0326 2.02-0.0651 4.04-0.0977 6.05-0.0288 2.03-0.0288 2.03 1.1 3.95 7.07 0.0253 14.1 0.0429 21.2 0.0549 2.4 0.00503 4.81 0.0119 7.21 0.0205 3.45 0.0121 6.91 0.0178 10.4 0.0222 1.08 0.00516 2.16 0.0103 3.27 0.0156 1 7.55e-5 2 1.51e-4 3.03 2.29e-4 0.882 0.00222 1.76 0.00444 2.67 0.00673 2.43-0.029 2.43-0.029 5.26-1.12 0.661-11.6-0.00738-20.7-6.8-30.6-2.51-2.71-4.81-4.03-8.14-5.62-1.02-0.5-2.04-1-3.09-1.52-11.1-4.59-23.4-1.7-32.5 5.83zm-142 59.9c-0.59 0.415-1.18 0.83-1.79 1.26-10.4 7.9-17.2 21-19.2 33.7-0.516 11.3-0.892 23.4 6 33 0.99 0.33 1.98 0.66 3 1 1.36 1.6 1.36 1.6 2.75 3.62 8.23 11.2 20.2 19.6 34.2 21.9 16.3 1.4 30.4-2.16 43.4-12.2 10.4-9.15 17.9-20.9 18.9-34.9 0.322-8.2-0.56-15-3.38-22.8-0.875-2.57-0.875-2.57-0.875-5.57h-2c-0.33-1.65-0.66-3.3-1-5h-2c-0.309-1.02-0.309-1.02-0.625-2.06-5.12-10.9-15.9-16.7-26.7-21-17.5-6.22-36.2-1.95-50.7 9.05zm182-1c-0.733 0.509-1.47 1.02-2.22 1.54-3.95 2.79-6.52 5.08-8.78 9.46-0.66 0.33-1.32 0.66-2 1-7.91 12.9-11.6 27-10 42 0.995 3.55 2.25 6.76 4 10h2c1.23 1.87 1.23 1.87 2.62 4.44 5.69 9.72 12.4 16.3 22.4 21.6 0.942 0.509 1.88 1.02 2.86 1.54 11.6 5.37 26 5.26 38.3 1.89 15.8-5.84 26.3-16.5 33.3-31.5 4.53-10.5 4.74-21 1.59-31.9-0.165-1.3-0.33-2.6-0.5-3.94-0.165-1.01-0.33-2.02-0.5-3.06-0.66-0.33-1.32-0.66-2-1-0.568-1.29-1.08-2.61-1.56-3.94-5.52-12.9-17.2-20.3-29.4-25.9-16.3-6.42-36.4-2.57-50.1 7.8zm-98 24 1 2zm18 26.8c-0.493 0.472-0.986 0.943-1.49 1.43-1.23 1.22-2.37 2.51-3.51 3.82v3c2.78 2.23 2.78 2.23 5.75 2.12 4.17-1.44 5.73-3.62 8.45-7 2.2-2.59 4.65-4.62 7.32-6.71 1.71-1.64 2.53-3.26 3.48-5.42-1.29-1.38-2.63-2.71-4-4-5.64 0-12 8.88-16 12.8zm36-5.75c-0.478 0.444-0.957 0.889-1.45 1.35-1.53 1.43-3.04 2.88-4.55 4.34-1.42 1.37-1.42 1.37-2.88 2.76-2.55 2.51-2.55 2.51-2.12 6.55 2.6 1.13 2.6 1.13 6 1 3.04-1.94 5.46-4.45 8-7 0.732-0.684 1.46-1.37 2.22-2.07 3.67-3.49 6.11-6.06 7.78-10.9-1.37-1.54-1.37-1.54-3-3-4.03 0-7.19 4.39-10 7zm-173 8 1 2z" fill="#F8F9FB"/>
<path transform="translate(184 31.6)" d="m0 0c9.01 7.64 16.1 17.6 17.2 29.6 0.146 2.29 0.292 4.58 0.438 6.88 0.172 3.05 0.172 3.05 1.28 6 1.9-0.0236 1.9-0.0236 3.84-0.0476 4.72-0.0545 9.43-0.0888 14.2-0.117 2.04-0.015 4.08-0.0355 6.11-0.0615 2.94-0.0366 5.87-0.0535 8.81-0.0667 0.904-0.0155 1.81-0.031 2.74-0.0469 0.86-2.27e-4 1.72-4.53e-4 2.61-6.87e-4 0.748-0.00666 1.5-0.0133 2.27-0.0202 3.49 0.509 6.28 1.88 9.47 3.36 0.0934 15.9 0.164 31.7 0.207 47.6 0.0206 7.36 0.0488 14.7 0.0945 22.1 0.0398 6.42 0.0657 12.8 0.0746 19.2 0.00522 3.4 0.0175 6.8 0.0466 10.2 0.0289 3.79 0.033 7.58 0.0312 11.4 0.0144 1.13 0.0288 2.26 0.0436 3.42-0.0055 1.03-0.011 2.06-0.0167 3.12 0.00369 0.897 0.00737 1.79 0.0112 2.72-0.492 2.27-0.492 2.27-2.23 4.06-2.54 1.36-4.04 1.6-6.91 1.61-0.932 0.0125-1.86 0.0251-2.83 0.038-1.02-0.00144-2.04-0.00287-3.09-0.00435-1.62 0.0153-1.62 0.0153-3.28 0.0309-3.6 0.0303-7.2 0.0394-10.8 0.0485-2.54 0.017-5.07 0.0352-7.61 0.0547-6.08 0.0432-12.2 0.0728-18.3 0.0955-7 0.0268-14 0.0691-21 0.112-15.4 0.0932-30.7 0.157-46.1 0.213-4.78 0.0183-9.56 0.0406-14.3 0.0632-16.2 0.0741-32.3 0.0743-48.5-0.0307-3.83-0.0212-7.67-0.032-11.5-0.0416-6.76-0.0178-13.5-0.0661-20.3-0.133-2.54-0.0216-5.08-0.0353-7.63-0.0404-3.46-0.00914-6.91-0.0494-10.4-0.098-1.02 0.00392-2.04 0.00785-3.09 0.0119-0.94-0.0196-1.88-0.0393-2.85-0.0595-0.811-0.00666-1.62-0.0133-2.46-0.0202-3.76-1.03-5.09-2.46-7.34-5.64-0.729-3.71-0.662-7.36-0.615-11.1-0.00555-1.12-0.0111-2.25-0.0168-3.41-0.0118-3.72 0.0125-7.43 0.0383-11.1 0.00171-2.58 0.00165-5.16-1.22e-4 -7.74 0.00165-5.41 0.0198-10.8 0.0519-16.2 0.0369-6.25 0.0457-12.5 0.0387-18.7-0.00631-6.02 0.00468-12 0.024-18.1 0.00703-2.56 0.0102-5.12 0.00931-7.67 0.0018-3.57 0.0232-7.15 0.0501-10.7-0.0044-1.59-0.0044-1.59-0.00888-3.21 0.109-9.34 0.109-9.34 3.43-12.9 4.56-2.89 10-2.27 15.2-2.23 1.54-4.38e-4 1.54-4.38e-4 3.11-8.85e-4 3.38 0.00139 6.76 0.0169 10.1 0.0326 2.35 0.00373 4.69 0.00658 7.04 0.00858 6.17 0.00763 12.3 0.0273 18.5 0.0494 6.3 0.0205 12.6 0.0296 18.9 0.0397 12.4 0.0214 24.7 0.0556 37.1 0.0977l2-9 5-1c0.147-0.822 0.294-1.64 0.445-2.49 2.23-11.1 6.46-20.4 15.6-27.5 15.3-9.63 28.9-10.5 45.1-2.44zm-34.1 6.44c-1.55 0.588-1.55 0.588-3.12 1.19-6.52 4.11-11.3 10.6-13.9 17.8-0.67 2.67-0.67 2.67 0 5 0.639 0.619 1.28 1.24 1.94 1.88 2.78 2.86 2.7 5.24 3.06 9.12 1.57 1.57 3.14 1.17 5.32 1.22 0.918 0.0232 1.84 0.0463 2.78 0.0702 1 0.0198 2 0.0397 3.03 0.0602 1.03 0.0232 2.05 0.0463 3.11 0.0702 2.18 0.0477 4.35 0.093 6.53 0.136 3.32 0.0667 6.64 0.145 9.96 0.224 2.11 0.045 4.23 0.0892 6.34 0.133 0.989 0.0239 1.98 0.0478 3 0.0724 5.11 0.092 9.9-0.0831 14.9-0.986 0.377-11.4-1.01-21.7-8.5-30.8-5.64-5.35-13.4-8.3-21.1-8.61-4.77 0.239-8.98 1.65-13.4 3.44zm-132 69c-2.41 3.61-2.28 6.21-2.24 10.4-0.0019 0.748-0.0038 1.5-0.00575 2.27-0.00371 2.47 0.00699 4.95 0.0182 7.42 0.00119 1.72 0.00164 3.43 0.00139 5.15 0.00156 3.6 0.00985 7.2 0.0233 10.8 0.017 4.62 0.0208 9.24 0.0201 13.9 2.72e-4 3.55 0.00575 7.09 0.013 10.6 0.00319 1.7 0.00515 3.41 0.00589 5.11 0.00216 2.38 0.0109 4.75 0.0216 7.13-4.53e-4 0.708-9.06e-4 1.42-0.00137 2.15-0.0229 3.67-0.0229 3.67 1.15 7.1h222v-82c-28.8-0.0676-57.6-0.123-86.3-0.155-13.4-0.0155-26.7-0.0365-40.1-0.0709-11.6-0.0298-23.3-0.0492-34.9-0.0559-6.17-0.00392-12.3-0.0132-18.5-0.0349-5.8-0.0203-11.6-0.0267-17.4-0.0221-2.13-8.29e-4 -4.27-0.00684-6.4-0.0183-2.9-0.0148-5.81-0.0114-8.71-0.00315-0.854-0.00874-1.71-0.0175-2.59-0.0265-2.58-0.0159-2.58-0.0159-6.04 0.387z" fill="#F6F7F9"/>
<path transform="translate(398,106)" d="m0 0v19h18c1.13 3.39 1.13 6.05 1.12 9.62 0.00387 1.75 0.00387 1.75 0.00781 3.54-0.133 2.84-0.133 2.84-1.13 3.84-3.27 0.073-6.53-0.0039-9.8-0.0625-3.71 0.0455-3.71 0.0455-7.2 1.06-1.19 3.56-1.35 6.97-1.56 10.7-0.0432 0.702-0.0864 1.4-0.131 2.13-0.106 1.73-0.207 3.46-0.307 5.19-2.96 0.988-4.97 1.13-8.06 1.12-1.32 0.00387-1.32 0.00387-2.66 0.00781-2.28-0.133-2.28-0.133-4.28-1.13-1.19-3.56-1.35-6.97-1.56-10.7-0.0432-0.702-0.0864-1.4-0.131-2.13-0.106-1.73-0.207-3.46-0.307-5.19-4.18-0.597-8.09-1.05-12.3-0.875-3.69-0.125-3.69-0.125-5.4-1.32-1.69-2.37-1.66-3.85-1.6-6.74 0.00387-0.855 0.00773-1.71 0.0117-2.59 0.301-2.47 0.301-2.47 2.3-6.47h17c-0.0395-5.13-0.0395-5.13-0.0901-10.3-0.0124-3.18 0.0769-5.7 1.09-8.74 5.18-2.28 11.7-1.06 17 0z" fill="#ECEDEF"/>
<path transform="translate(55.1 119)" d="m0 0c2.88 1.12 2.88 1.12 4.75 3.44 1.6 5.24 1.36 10.2 1.12 15.7 0.869-0.0348 1.74-0.0696 2.63-0.105 11.6-0.272 11.6-0.272 16.4 3.11 2 2 2 2 2.5 5.81-0.137 3.42-0.53 4.23-2.62 7.19-5.01 3.63-12 2.36-17.9 2-0.0387 1.55-0.0387 1.55-0.0781 3.14-0.0563 1.37-0.114 2.74-0.172 4.11-0.0142 0.682-0.0284 1.36-0.043 2.07-0.166 3.42-0.479 5.38-2.57 8.14-2.14 1.55-2.14 1.55-5.07 2.05-3.79-0.618-5.37-1.81-8.06-4.5-1.83-2.99-2.25-5.2-2.19-8.69 0.00645-0.788 0.0129-1.58 0.0195-2.39 0.168-1.93 0.168-1.93 1.17-2.93-0.953-0.0142-1.91-0.0284-2.89-0.043-11.5-0.438-11.5-0.438-14.4-3.27-2.61-4.15-2.61-4.15-2.69-6.69 0.988-3.38 2.04-6.02 5-8 5.03-0.99 8.95-1.14 14 0-0.0522-0.853-0.0522-0.853-0.105-1.72-0.236-6.73 0.68-11.7 5.42-16.8 2.69-1.5 2.69-1.5 5.81-1.62z" fill="#F8F9FB"/>
<path transform="translate(610 116)" d="m0 0c4.34 4.34 6.33 9.82 7.75 15.8-0.345 7.27-4.89 11.3-10 16-3.95 3.41-8.04 6.65-12.1 9.88-3.2 2.55-6.21 5.24-9.18 8.05-6.06 5.5-12.6 10.3-21 10.7-5.27-0.367-8.5-2.3-12.1-6.16-4.53-5.25-4.53-5.25-4.62-8.39 0.484-6.11 2.02-9.45 6.05-14.1h2c0.201-0.557 0.402-1.11 0.609-1.69 1.93-3.21 4.67-5.12 7.64-7.31 0.561-0.425 1.12-0.851 1.7-1.29 2.69-2.02 5.4-3.94 8.21-5.79 3.27-2.21 6.03-4.74 8.91-7.43 2.02-1.55 3.44-2.07 5.93-2.49v-3c6.46-5.94 12.3-5.79 20.2-2.75zm-20.2 8.75c-3.16 3.83-4.77 7-5 12 5.17 5.57 5.17 5.57 12 8.09 4.18-0.277 7.34-0.769 10.6-3.53 2.99-3.45 3.24-6.77 2.96-11.2-1-4.45-3.93-6.32-7.59-8.65-5.12-1.82-8.9 0.273-12.9 3.31zm18 16c0.33 0.66 0.66 1.32 1 2 0.33-0.66 0.66-1.32 1-2h-2zm-44 1c0.33 0.66 0.66 1.32 1 2 0.33-0.66 0.66-1.32 1-2h-2zm-4.31 8.25c-2.3 3.75-2.54 6.36-2.69 10.8 3.68 3.68 7.9 6.52 13 7.69 4.56-1.04 7.84-3.26 11-6.69 1.24-4.14 1.6-7.94 0-12-3.2-3.35-5.07-4.72-9.5-6.06-5.45 0.0973-8.03 2.63-11.8 6.31zm3.31-6.25c-0.99 0.33-1.98 0.66-3 1-0.733 2.02-0.733 2.02-1 4 0.66-0.33 1.32-0.66 2-1v-2h3c-0.33-0.66-0.66-1.32-1-2z" fill="#F4F5F7"/>
<path transform="translate(580 90.8)" d="m0 0c5.9 3.12 5.9 3.12 6.88 6.12 0.124 0.681 0.247 1.36 0.375 2.06 0.324 0.607 0.647 1.21 0.98 1.84 1.92 4.06 2.01 7.8 1.02 12.2-4.61 7.55-12.3 12.8-19.2 18.1-5.33 4.1-10.3 8.56-15.4 13-0.567 0.493-1.13 0.987-1.72 1.5-1.1 0.96-2.19 1.93-3.27 2.91-4.41 3.89-7.61 4.86-13.4 4.54-6.15-1.76-10.5-6.82-14-12-1.03-5.41 0.432-9.21 3-14 3.98-5.59 8.99-9.46 14.4-13.6 4.37-3.36 8.42-6.93 12.4-10.7 8.03-7.61 16.2-15.3 27.9-11.9zm-21.7 15.6c-1.3 3.13-1.49 5.21-1.06 8.56 1.73 3.46 4.57 5.55 7.97 7.36 3.97 1.26 7.34 0.4 11-1.36 3.62-2.84 5.73-5.51 6.56-10.1-0.879-4.59-2.18-7.78-5.81-10.8-8.08-3.31-13.6-0.0328-18.7 6.31zm20.9 12.6c-0.33 0.66-0.66 1.32-1 2h2c-0.33-0.66-0.66-1.32-1-2zm-45.6 4.53c-3.76 4.67-5.03 7.76-4.61 13.8 0.0696 0.557 0.139 1.11 0.211 1.69 0.624 0.296 1.25 0.593 1.89 0.898 2.11 1.1 2.11 1.1 3.86 2.73 3.33 2.03 6.51 2.03 10.2 1.38 3.82-2.02 7-4.11 9-8 0.605-3.56 0.728-5.88-1.28-8.97-2.95-3.52-2.95-3.52-6.72-6.03-6.82-0.516-6.82-0.516-12.6 2.53zm42.6-2.53c-0.33 0.66-0.66 1.32-1 2 0.99-0.33 1.98-0.66 3-1-0.66-0.33-1.32-0.66-2-1zm-25 20v3c0.66-0.99 1.32-1.98 2-3h-2zm-2 3c-0.66 0.66-1.32 1.32-2 2h3c-0.33-0.66-0.66-1.32-1-2z" fill="#EDEEF0"/>
<path transform="translate(102 147)" d="m0 0c0.644-1.46e-4 1.29-2.92e-4 1.95-4.43e-4 2.13 6.97e-4 4.26 0.00848 6.4 0.0163 1.48 0.00186 2.95 0.00329 4.43 0.00429 3.89 0.00382 7.78 0.0136 11.7 0.0247 3.97 0.0102 7.94 0.0148 11.9 0.0198 7.79 0.0107 15.6 0.0278 23.4 0.0488 0.682 3.27 1.13 6.27 1.13 9.61 0.00129 0.837 0.00258 1.67 0.00391 2.54-0.00387 0.86-0.00773 1.72-0.0117 2.61 0.00387 0.875 0.00773 1.75 0.0117 2.65-0.00129 0.831-0.00258 1.66-0.00391 2.52-0.00113 0.759-0.00226 1.52-0.00342 2.3-0.129 1.78-0.129 1.78-1.13 2.78-2.08 0.105-4.15 0.139-6.23 0.145-0.65 0.00336-1.3 0.00672-1.97 0.0102-2.16 0.00954-4.32 0.0115-6.48 0.0125-1.5 0.00321-2.99 0.00657-4.49 0.0101-3.14 6e-3 -6.28 0.00784-9.42 0.00725-4.03-1.02e-4 -8.06 0.0136-12.1 0.0308-3.09 0.0111-6.18 0.0131-9.27 0.0126-1.49 0.00118-2.97 0.00562-4.46 0.0133-2.08 0.00976-4.15 0.00694-6.23 8.95e-4 -1.77 0.00214-1.77 0.00214-3.58 0.00432-2.78-0.247-2.78-0.247-4.78-2.25-0.243-1.92-0.243-1.92-0.23-4.25 0.00193-0.837 0.00387-1.67 0.00586-2.54 0.0122-0.876 0.0245-1.75 0.0371-2.65 9.67e-4 -1.31 9.67e-4 -1.31 0.00195-2.64 0.045-6.5 0.045-6.5 1.19-9.92 2.81-1.41 5.14-1.12 8.29-1.11zm-1.29 9.11v7c1.01 1.23 1.01 1.23 3.04 1.11 0.875-0.00524 1.75-0.0105 2.65-0.0159 0.944-0.00322 1.89-0.00645 2.86-0.00977 1.49-0.0126 1.49-0.0126 3.01-0.0254 0.997-0.00451 1.99-0.00902 3.02-0.0137 2.47-0.0118 4.94-0.0283 7.42-0.0488 0.597-2.76 1-5.16 1-8h-23zm31 1c-0.167 3-0.167 3 0 6 1.03 1.25 1.03 1.25 3.22 1.11 1.44-0.00786 1.44-0.00786 2.9-0.0159 1.03-0.00322 2.07-0.00645 3.13-0.00977 1.09-0.00838 2.18-0.0168 3.3-0.0254 1.09-0.00451 2.18-0.00902 3.31-0.0137 2.71-0.0118 5.42-0.0283 8.13-0.0488 0.381-2.33 0.713-4.66 1-7-1.69-1.69-3.79-1.13-6.09-1.13-1.03-0.00129-2.06-0.00258-3.12-0.00391-1.08 0.00387-2.17 0.00773-3.29 0.0117-1.63-0.0058-1.63-0.0058-3.29-0.0117-1.03 0.00129-2.06 0.00258-3.12 0.00391-1.43 0.00169-1.43 0.00169-2.88 0.00342-2.18-0.118-2.18-0.118-3.21 1.13z" fill="#F1F2F4"/>
<path transform="translate(1113 68.9)" d="m0 0c1.63 0.0271 1.63 0.0271 3.29 0.0547 1.25 0.0348 1.25 0.0348 2.52 0.0703 1.94 3.89 1.65 8.74 2 13 6.93 0.495 6.93 0.495 14 1v17h-14c-0.33 4.62-0.66 9.24-1 14-10.7 0.195-10.7 0.195-14 0-3.44-3.44-2.67-8.29-3-13-3.96-0.33-7.92-0.66-12-1v-3h-2c-0.0547-1.4-0.0931-2.79-0.125-4.19-0.0232-0.777-0.0464-1.55-0.0703-2.36 0.195-2.46 0.195-2.46 2.2-7.46h13c-0.0619-1.94-0.124-3.88-0.188-5.88-0.105-3.3-0.105-3.3 0.188-6.12 3.53-2.35 5.03-2.21 9.19-2.12z" fill="#F3F4F6"/>
<path transform="translate(763 87.8)" d="m0 0c1.07-0.0142 2.14-0.0284 3.25-0.043 2.75 0.23 2.75 0.23 4.75 2.23-0.33 0.33-0.66 0.66-1 1 0.0377 1.67 0.154 3.34 0.312 5 0.0786 0.907 0.157 1.81 0.238 2.75 0.222 1.11 0.222 1.11 0.449 2.25 2.7 1.35 5.12 1.34 8.12 1.56 1.64 0.126 1.64 0.126 3.32 0.254 0.843 0.0606 1.69 0.121 2.55 0.184 0.753 3.34 1.11 6.39 1.06 9.81-0.00902 0.79-0.018 1.58-0.0273 2.39-0.0116 0.592-0.0232 1.18-0.0352 1.79-4.54 2.61-8.84 2.59-14 3-0.66 4.29-1.32 8.58-2 13-5.08 0.789-8.9 0.986-14 0-0.361-1.98-0.714-3.96-1.06-5.94-0.296-1.65-0.296-1.65-0.598-3.34-0.112-0.898-0.224-1.8-0.34-2.72l1-1c-1.01-0.144-2.02-0.289-3.06-0.438-1.3-0.186-2.6-0.371-3.94-0.562-1.26-0.124-2.52-0.248-3.81-0.375-1.58-0.309-1.58-0.309-3.19-0.625-2.2-3.3-2.2-3.79-1.69-7.5 0.0993-0.773 0.199-1.55 0.301-2.34 0.387-2.16 0.387-2.16 1.39-5.16 6.43-0.495 6.43-0.495 13-1 0.124-2.12 0.247-4.25 0.375-6.44 0.211-3.62 0.211-3.62 0.625-6.56 2.73-1.36 4.96-1.17 8-1.19z" fill="#EFF0F2"/>
<path transform="translate(226,146)" d="m0 0c2.5 1.31 2.5 1.31 4 3 0.625 2.44 0.625 2.44 1 5 0.351 0.639 0.701 1.28 1.06 1.94 1.32 2.91 1.32 4.89 0.938 8.06-1.91 3.9-3.47 5.68-7.19 7.94-5.72 1.59-10.4 1.21-15.8-1.31-2.06-1.62-2.06-1.62-4.06-4.62v-3h-2c0.495-7.17 2.05-11.3 7.56-16.3 5.11-3.54 8.83-2.4 14.4-0.688z" fill="#FAFBFD"/>
<path transform="translate(193 147)" d="m0 0c3.98 3.52 4.42 6.72 4.94 11.9 0.2 4.21 0.156 6.78-1.94 10.5-3.55 3.07-6.09 3.89-10.8 4.31-5.86-0.514-9.78-2.86-13.6-7.31-1.9-3.09-2.23-4.84-1.44-8.38 1.52-5.9 4.21-9.12 9.31-12.6 5.16-1.75 8.63-0.796 13.4 1.56z" fill="#F9FAFC"/>
<path transform="translate(16,187)" d="m0 0c0.33 0.66 0.66 1.32 1 2h222v2c-22.4 0.132-44.7 0.262-67.1 0.391-10.4 0.0599-20.8 0.12-31.2 0.182-9.07 0.0537-18.1 0.106-27.2 0.158-4.78 0.0273-9.57 0.055-14.4 0.0838-9.74 0.0584-19.5 0.11-29.2 0.149-5.63 0.023-11.3 0.0585-16.9 0.0998-3.91 0.0266-7.82 0.0448-11.7 0.061-1.87 0.00949-3.73 0.0225-5.6 0.0391-2.58 0.0225-5.15 0.0325-7.73 0.0395-0.762 0.00963-1.52 0.0193-2.31 0.0292-3.75-0.0029-6.58-0.133-9.76-2.23v-3z" fill="#000102"/>
<path transform="translate(582,92)" d="m0 0c3.78 2.31 3.78 2.31 4.62 4.94 0.124 0.681 0.247 1.36 0.375 2.06 0.33 0.601 0.66 1.2 1 1.82 1.79 3.89 1.58 7.99 1 12.2-2 3.12-2 3.12-4 5-1.32-0.33-2.64-0.66-4-1 0.0348-0.58 0.0696-1.16 0.105-1.76 0.18-5.19-0.0763-8.81-3.11-13.2-3.35-2.64-6.87-2.36-11-2-3.35 1.38-3.35 1.38-6 3-0.812-2.12-0.812-2.12-1-5 5.53-8.05 13-10.7 22-6z" fill="#E5E6E8"/>
<path transform="translate(561,146)" d="m0 0c0.99 0.33 1.98 0.66 3 1-1.21 1.24-1.21 1.24-2.44 2.5-2.44 2.99-3.71 5.51-3.93 9.4 0.634 3.67 2.3 5.95 4.85 8.6 5.02 3 10.9 2.21 16.5 1.5 0.66-0.33 1.32-0.66 2-1-1.39 4.17-3.61 4.99-7.39 6.98-4.27 1.67-8.12 1.84-12.6 1.02-5.23-2.57-9.38-6.76-12-12 0.0315-4.07 0.42-7.84 2.25-11.5 2.19-1.88 3.96-1.94 6.75-2.5 1.82-1.96 1.82-1.96 3-4z" fill="#F5F6F8"/>
<path transform="translate(610 116)" d="m0 0c4.34 4.34 6.33 9.82 7.75 15.8-0.169 5.12-1.85 7.56-5.31 11.2-0.78 0.851-1.56 1.7-2.36 2.58-2.08 1.94-3.72 3.1-6.32 4.17 0.941-2.6 1.71-4.67 3.56-6.76 1.96-3.04 1.77-5.22 1.69-8.8-0.0155-1.14-0.0309-2.27-0.0469-3.44-0.0805-3.05-0.0805-3.05-1.2-6-3.36-2.33-7.02-2.49-11-3-0.99-0.33-1.98-0.66-3-1 0.66-0.33 1.32-0.66 2-1-0.66-1.32-1.32-2.64-2-4 5.46-3.19 10.6-1.94 16.2 0.25z" fill="#DFE0E2"/>
<path transform="translate(1327,82)" d="m0 0c2.34 1.37 3.68 2.24 4.75 4.75 0.929 8.36 0.929 8.36-1.94 12.1-2.91 2.2-4.24 2.89-7.81 3.12-2.2-1.26-2.2-1.26-4.25-3.12-0.686-0.601-1.37-1.2-2.08-1.82-2-2.46-2.6-3.88-2.67-7.05 1.36-2.2 1.36-2.2 3.31-4.25 0.953-1.03 0.953-1.03 1.93-2.08 3.12-2.96 4.71-2.83 8.76-1.67z" fill="#E8E9EB"/>
<path transform="translate(1290 80.3)" d="m0 0c4.22 1.16 6.47 4.12 8.81 7.69 0.95 2.76 1.3 4.08 0.688 7-2 2.82-4.16 5.02-7 7-3.06 0.438-3.06 0.438-6-1-2.57-2.4-4.48-4.82-6-8 0.526-5.26 4.2-11.2 9.5-12.7z" fill="#E8E9EB"/>
<path transform="translate(1306,97)" d="m0 0c4.98 1.66 7.85 3.82 10.3 8.5 0.772 2.81 0.952 3.89-0.312 6.5-3.07 2.98-5.63 5-10 5-3.12-1.75-3.12-1.75-6-4-0.639-0.454-1.28-0.907-1.94-1.38-1.06-1.62-1.06-1.62-1.25-4.38 1.75-4.79 5.22-7.2 9.19-10.2z" fill="#E7E8E9"/>
<path transform="translate(1310,67)" d="m0 0c2.94 0.924 3.89 1.87 5.81 4.31 1.19 2.69 1.19 2.69 1.25 5.12-1.55 3.75-3.64 6.35-7.06 8.56-3.5 0.375-3.5 0.375-7-1-2.5-2.39-4.55-4.85-6-8 0.291-3.47 1.13-4.14 3.69-6.75 3.13-2.44 5.31-2.86 9.31-2.25z" fill="#F3F4F6"/>
<path transform="translate(527,126)" d="m0 0c0.99 0.33 1.98 0.66 3 1-0.0348 0.831-0.0696 1.66-0.105 2.52-0.0406 1.63-0.0406 1.63-0.082 3.29-0.0348 1.08-0.0696 2.16-0.105 3.27 0.328 3.27 0.856 3.89 3.29 5.92v2c3.46 1.35 6.01 2 9.75 2h3.25c0.66 0.66 1.32 1.32 2 2-0.99 0.33-1.98 0.66-3 1v3c-4.26 0.786-7.85 1.33-12.1 0.125-5.32-3.85-10.4-8.12-11.6-14.8 0.794-3.9 1.85-6.85 3.69-10.4 0.66-0.33 1.32-0.66 2-1z" fill="#FBFCFE"/>
<path transform="translate(345,163)" d="m0 0c0.681 0.681 1.36 1.36 2.06 2.06 0.702 0.688 0.702 0.688 1.42 1.39 1.52 1.55 1.52 1.55 2.88 3.16 8.93 10.1 23 15.5 36.1 16.4 15.1 0.169 28.1-5.19 39.5-15 2.19-2.25 4.08-4.51 6-7 0 5.15-3.56 8.4-7 12-13.2 10.4-27.4 14-44 13-11.6-1.68-21.6-6.83-30-15v-2c-0.99-0.33-1.98-0.66-3-1-4-5.37-4-5.37-4-8z" fill="#000102"/>
<path transform="translate(231,116)" d="m0 0c0 3 0 3-2 5.32-3.42 3.21-7.22 5.89-11.1 8.55-0.707 0.51-1.41 1.02-2.14 1.55-0.686 0.477-1.37 0.954-2.08 1.45-0.926 0.651-0.926 0.651-1.87 1.32-2.34 1.03-3.49 0.662-5.84-0.183-0.33-1.98-0.66-3.96-1-6 2.93-2.15 5.87-4.3 8.81-6.44 0.833-0.612 1.67-1.22 2.53-1.85 0.802-0.583 1.6-1.17 2.43-1.77 0.738-0.539 1.48-1.08 2.24-1.63 4.01-2.63 5.81-2.23 9.99-0.307z" fill="#D5D6D8"/>
<path transform="translate(197 115)" d="m0 0c0.87 0.4 1.74 0.799 2.64 1.21-1.03 5.57-3.56 7.65-7.97 10.7-1.16 0.776-1.16 0.776-2.34 1.57-0.76 0.537-1.52 1.07-2.3 1.63-3.85 2.65-6.7 4.34-11.4 5.06-0.99-1.65-1.98-3.3-3-5 4.8-4.56 9.8-8.77 15.2-12.6 1.44-1.04 1.44-1.04 2.92-2.1 2.89-1.27 2.89-1.27 6.26-0.484z" fill="#D7D8D9"/>
<path transform="translate(612,166)" d="m0 0c0.495 1.49 0.495 1.49 1 3-3.16 3.26-6.33 6.32-10 9h-2c-0.33 0.99-0.66 1.98-1 3-12.5 8.43-28.1 9.95-42.7 7.34-9.83-2.72-20.6-8.45-27.3-16.3-0.68-2.18-0.68-2.18-1-4 0.473 0.364 0.946 0.727 1.43 1.1 2.17 1.65 4.37 3.28 6.57 4.9 1.03 0.772 1.03 0.772 2.08 1.56 12.9 9.22 25.4 11 40.9 9.44 13.1-2.26 23.2-9.29 32-19z" fill="#000102"/>
<path transform="translate(102 147)" d="m0 0c0.644-1.46e-4 1.29-2.92e-4 1.95-4.43e-4 2.13 6.97e-4 4.26 0.00848 6.4 0.0163 1.48 0.00186 2.95 0.00329 4.43 0.00429 3.89 0.00382 7.78 0.0136 11.7 0.0247 3.97 0.0102 7.94 0.0148 11.9 0.0198 7.79 0.0107 15.6 0.0278 23.4 0.0488 0.495 1.49 0.495 1.49 1 3-22.8 0.33-45.5 0.66-69 1v-3c2.81-1.41 5.14-1.12 8.29-1.11z" fill="#000102"/>
<path transform="translate(939,98)" d="m0 0c2.79 2.17 3.53 3.97 4 7.44 0.295 3.62 0.3 4.2-2.12 7.12-4.51 2.26-4.51 2.26-7.88 1.44-3.28-2.34-5.61-4.66-6.75-8.56 1.83-5.96 6.87-8.48 12.8-7.44z" fill="#E1E2E3"/>
<path transform="translate(902,118)" d="m0 0c2.52 3.11 2.93 7.08 3 11-2.51 2.96-4.2 3.85-8 4.56-4.07-0.764-5.53-2.29-8-5.56-0.625-2.5-0.625-2.5 0-5 4.31-4.99 6.49-6.76 13-5z" fill="#E1E2E4"/>
<path transform="translate(918 107)" d="m0 0c3.57 2.12 5.18 5.43 6.31 9.38-0.387 3.18-0.938 3.94-3.25 6.31-2.75 1.69-2.75 1.69-5.25 1.75-3.39-1.44-5.21-3.19-7.5-6.06-0.75-2.44-0.75-2.44 0-5 2.73-3.28 5.38-5.77 9.69-6.38z" fill="#E6E7E9"/>
<path transform="translate(790,133)" d="m0 0 1 2c-8.33 8.57-15.9 13.1-28.1 13.5-9.64-0.316-18-3.68-24.9-10.5-1.22-2.19-1.22-2.19-2-4 3.01 1.42 5.65 3.09 8.38 5 8.53 5.7 17.2 6.93 27.2 4.94 7.45-1.91 13.1-5.41 18.4-10.9z" fill="#000102"/>
<path transform="translate(921,130)" d="m0 0c0.66 0.33 1.32 0.66 2 1-3 1.58-6 3.17-9 4.75-0.839 0.443-1.68 0.887-2.54 1.34-2.48 1.31-4.97 2.61-7.46 3.91-0.747 0.398-1.49 0.796-2.26 1.21-0.693 0.362-1.39 0.723-2.1 1.1-0.604 0.319-1.21 0.638-1.83 0.966-3.42 1.39-6.14 1.15-9.81 0.733-3.71-1.69-6.23-4.03-9-7 0.33-0.66 0.66-1.32 1-2 0.742 0.619 1.49 1.24 2.25 1.88 4.6 3.61 4.6 3.61 10.4 3.91 4.78-0.658 8.69-2.5 13-4.66 1.44-0.707 2.88-1.41 4.32-2.12 0.689-0.337 1.38-0.675 2.09-1.02 2.99-1.45 5.93-2.8 9.03-3.99z" fill="#000102"/>
<path transform="translate(1152,142)" d="m0 0c0.424 0.398 0.848 0.797 1.29 1.21 5.6 5.06 11 8.41 18.7 8.08 5.73-0.837 10.4-4.02 15-7.29-0.378 2.55-0.815 3.8-2.61 5.7-5.6 4.05-10.2 5.27-17.1 4.96-5.33-1.1-9.42-3.85-13.2-7.67v-2h-2v-3z" fill="#000102"/>
<path transform="translate(1268,143)" d="m0 0c0 3 0 3-1.68 4.79-0.724 0.606-1.45 1.21-2.2 1.84-0.719 0.611-1.44 1.22-2.18 1.85-4.73 3.7-10.2 2.94-15.9 2.52-4.78-1.65-7.6-4.3-11-8 0.33-0.66 0.66-1.32 1-2 0.866 0.784 1.73 1.57 2.62 2.38 5.02 4.15 9.9 5.18 16.4 4.62 5.68-1.39 9.19-3.6 13-8z" fill="#000102"/>
<path transform="translate(580,116)" d="m0 0c1.32 0.99 2.64 1.98 4 3-7.26 7.68-7.26 7.68-11.3 8.41-2.95-0.318-5.21-1-7.54-2.85-0.392-0.516-0.784-1.03-1.19-1.56-0.99-0.66-1.98-1.32-3-2 0.33-0.66 0.66-1.32 1-2 0.639 0.536 1.28 1.07 1.94 1.62 3.88 1.74 5.95 1.26 9.97 0.191 2.72-1.06 4.33-2.51 6.09-4.82zm-1 3c-0.33 0.66-0.66 1.32-1 2h2c-0.33-0.66-0.66-1.32-1-2zm-3 2c-0.33 0.66-0.66 1.32-1 2 0.99-0.33 1.98-0.66 3-1-0.66-0.33-1.32-0.66-2-1z" fill="#8F9292"/>
<path transform="translate(592,117)" d="m0 0c1.95 0.242 1.95 0.242 4.12 0.875 0.724 0.204 1.45 0.407 2.2 0.617 0.554 0.168 1.11 0.335 1.68 0.508-3.75 2-3.75 2-6 2-0.33 0.99-0.66 1.98-1 3-1.88 1.84-3.93 3.37-6 5-0.66-0.33-1.32-0.66-2-1v2c-2-1-2-1-4-3 5.62-3.88 5.62-3.88 9-5v-3c0.66-0.66 1.32-1.32 2-2z" fill="#C5C8C9"/>
<path transform="translate(553,136)" d="m0 0c0.33 0.99 0.66 1.98 1 3-2.41 3.58-4.02 5.51-7.88 7.44-3.8 0.685-6.39 0.582-10.1-0.438-3.46-2.78-5.14-4.69-6-9 0.413 0.433 0.825 0.866 1.25 1.31 3.07 2.96 5.42 5.13 9.81 5.31 4.36-0.693 6.57-1.81 9.94-4.62 0.66-0.99 1.32-1.98 2-3z" fill="#000102"/>
<path transform="translate(587,138)" d="m0 0c1.5 1.27 2.99 2.54 4.49 3.81 2.72 2.15 4.37 2.33 7.76 2.07 4.97-0.587 7.26-2.38 10.8-5.88-1.36 4.44-2.92 6.71-7 9-4.26 0.832-8.21 1.13-12-1.25-1.64-1.57-1.64-1.57-4.02-4.75v-3z" fill="#08090A"/>
<path transform="translate(559,161)" d="m0 0c1.5 1.27 2.99 2.54 4.49 3.81 3.19 2.52 5.5 2.64 9.51 2.19 2.82-1.45 5.41-3.16 8-5-0.33 1.32-0.66 2.64-1 4-0.639 0.103-1.28 0.206-1.94 0.312-1.02 0.34-1.02 0.34-2.06 0.688-0.33 0.99-0.66 1.98-1 3-8.52 0.909-8.52 0.909-12-1.23-1.62-1.58-1.62-1.58-4-4.77v-3z" fill="#000102"/>
<path transform="translate(226,146)" d="m0 0c2.56 1.62 2.56 1.62 4 3-0.33 0.66-0.66 1.32-1 2-0.825-0.495-1.65-0.99-2.5-1.5-4.06-1.74-7.15-2.32-11.5-1.5-2.3 1.12-3.98 2.39-6 4-0.66-0.33-1.32-0.66-2-1 1.1-0.985 2.2-1.96 3.31-2.94 0.615-0.545 1.23-1.09 1.86-1.65 4.54-3.51 8.77-2 13.8-0.41z" fill="#000102"/>
<path transform="translate(190,145)" d="m0 0c3.44 1.88 3.44 1.88 6 4v3c-0.804-0.66-1.61-1.32-2.44-2-4-2.66-7.9-2.76-12.6-2-2.85 1.44-2.85 1.44-5 3-0.66-0.33-1.32-0.66-2-1 5.59-4.85 8.33-6.69 16-5z" fill="#000102"/>
<path transform="translate(101,163)" d="m0 0c7.26 0.33 14.5 0.66 22 1v2c-14.8 1.33-14.8 1.33-21 0-0.33-0.99-0.66-1.98-1-3z" fill="#000102"/>
<path transform="translate(61,138)" d="m0 0c13.9-0.558 13.9-0.558 19 3 0.66 0.66 1.32 1.32 2 2-0.33 0.99-0.66 1.98-1 3-0.513-0.648-1.03-1.3-1.55-1.96-3.26-2.71-5.38-2.53-9.57-2.6-3.76-0.0664-3.76-0.0664-6.88-0.438-0.66-0.99-1.32-1.98-2-3z" fill="#000102"/>
<path transform="translate(570,137)" d="m0 0c-1 3-1 3-2.94 4-0.681 0.33-1.36 0.66-2.06 1-0.99 1.49-0.99 1.49-2 3h-3c-0.247 0.804-0.495 1.61-0.75 2.44-1.25 2.56-1.25 2.56-3.38 3.38-0.619 0.0619-1.24 0.124-1.88 0.188 0.33-0.99 0.66-1.98 1-3h2c0.237-0.583 0.474-1.17 0.719-1.77 1.55-2.71 3.3-4.1 5.78-5.98 1.19-0.92 1.19-0.92 2.41-1.86 2.09-1.39 2.09-1.39 4.09-1.39z" fill="#0E1010"/>
<path transform="translate(44,139)" d="m0 0v2c-0.88 0.0374-1.76 0.0748-2.67 0.113-1.16 0.0657-2.32 0.131-3.52 0.199-1.15 0.058-2.3 0.116-3.48 0.176-3.48 0.534-5.48 1.51-8.33 3.51 0.951-2.51 1.97-3.97 3.94-5.81 4.71-1.83 9.14-0.903 14.1-0.188z" fill="#000102"/>
<path transform="translate(535,117)" d="m0 0c1 3 1 3 0.312 5.5-1.43 2.72-2.75 3.88-5.31 5.5 0-3 0-3 2-6-2.97 2.47-2.97 2.47-6 5 1.38-3.21 2.92-5.05 5.62-7.25 0.632-0.521 1.26-1.04 1.91-1.58 0.723-0.58 0.723-0.58 1.46-1.17z" fill="#9DA0A1"/>
<path transform="translate(433,164)" d="m0 0c0 5.07-3.65 8.41-7 12-2.29 1.67-4.42 2.79-7 4 1.42-3.34 3.08-5.16 5.88-7.44 3.11-2.63 5.72-5.25 8.12-8.56z" fill="#010203"/>
<path transform="translate(499,142)" d="m0 0c0 4.03-1.4 4.86-4.19 7.69-0.777 0.808-1.55 1.62-2.36 2.45-2.46 1.86-2.46 1.86-5.13 2.32-0.767-0.151-1.53-0.302-2.32-0.457-0.66-0.99-1.32-1.98-2-3 0.825 0.144 1.65 0.289 2.5 0.438 5.96-0.745 9.4-5.33 13.5-9.44z" fill="#010203"/>
<path transform="translate(613,139)" d="m0 0c0.33 0.99 0.66 1.98 1 3-2.64 2.64-5.28 5.28-8 8-0.66-0.33-1.32-0.66-2-1 2.1-4.08 4.02-5.8 8-8 0.33-0.66 0.66-1.32 1-2z" fill="#E6EAEB"/>
<path transform="translate(612,166)" d="m0 0c0.33 0.99 0.66 1.98 1 3-3.17 3.26-6.4 6.22-10 9-0.66-0.33-1.32-0.66-2-1l11-11z" fill="#010203"/>
<path transform="translate(529,126)" d="m0 0c-0.547 3.37-1.05 5.08-3 8-0.33-0.99-0.66-1.98-1-3l-2 1c2.15-6 2.15-6 6-6z" fill="#D7DADB"/>
<path transform="translate(867)" d="m0 0h10v1h-10v-1z" fill="#0E1010"/>
</svg>
